<?xml version="1.0" encoding="UTF-8"?>
<svg xmlns="http://www.w3.org/2000/svg" width="1600" height="900" viewBox="0 0 1600 900">
  <defs>
    <linearGradient id="g" x1="0" y1="0" x2="1" y2="1">
      <stop offset="0" stop-color="#05070a"/>
      <stop offset="0.55" stop-color="#0b1220"/>
      <stop offset="1" stop-color="#0a0f1a"/>
    </linearGradient>
    <radialGradient id="r1" cx="25%" cy="25%" r="60%">
      <stop offset="0" stop-color="#22d3ee" stop-opacity="0.25"/>
      <stop offset="1" stop-color="#22d3ee" stop-opacity="0"/>
    </radialGradient>
    <radialGradient id="r2" cx="80%" cy="35%" r="55%">
      <stop offset="0" stop-color="#e879f9" stop-opacity="0.18"/>
      <stop offset="1" stop-color="#e879f9" stop-opacity="0"/>
    </radialGradient>
    <radialGradient id="r3" cx="55%" cy="85%" r="65%">
      <stop offset="0" stop-color="#f59e0b" stop-opacity="0.14"/>
      <stop offset="1" stop-color="#f59e0b" stop-opacity="0"/>
    </radialGradient>
  </defs>

  <rect width="1600" height="900" fill="url(#g)"/>
  <rect width="1600" height="900" fill="url(#r1)"/>
  <rect width="1600" height="900" fill="url(#r2)"/>
  <rect width="1600" height="900" fill="url(#r3)"/>

  <g opacity="0.22" stroke="#ffffff" stroke-opacity="0.10">
    <path d="M0 740 C 320 680, 520 860, 860 780 C 1100 724, 1260 640, 1600 700" fill="none" stroke-width="2"/>
    <path d="M0 780 C 340 720, 540 900, 900 820 C 1160 762, 1320 690, 1600 740" fill="none" stroke-width="2"/>
    <path d="M0 820 C 360 760, 560 940, 940 860 C 1220 800, 1380 740, 1600 790" fill="none" stroke-width="2"/>
  </g>
</svg>
